<svg width="1280" height="640" viewBox="0 0 1280 640" fill="none" xmlns="http://www.w3.org/2000/svg">
<rect width="1280" height="640" rx="19" fill="#2E2B2B"/>
<path d="M416.804 319.516C406.804 319.516 397.804 317.366 389.804 313.066C381.904 308.666 375.654 302.416 371.054 294.316C366.554 286.116 364.304 276.566 364.304 265.666C364.304 254.766 366.554 245.266 371.054 237.166C375.654 228.966 381.904 222.716 389.804 218.416C397.804 214.016 406.804 211.816 416.804 211.816C423.604 211.816 429.654 212.616 434.954 214.216C440.354 215.816 445.704 218.116 451.004 221.116C453.204 222.316 454.304 224.216 454.304 226.816C454.304 228.316 453.754 229.666 452.654 230.866C451.554 231.966 450.104 232.516 448.304 232.516C447.304 232.516 446.404 232.316 445.604 231.916C441.204 229.616 436.904 227.866 432.704 226.666C428.504 225.466 423.654 224.866 418.154 224.866C409.554 224.866 402.204 226.666 396.104 230.266C390.104 233.766 385.554 238.616 382.454 244.816C379.454 250.916 377.954 257.866 377.954 265.666C377.954 273.466 379.454 280.466 382.454 286.666C385.554 292.766 390.104 297.616 396.104 301.216C402.204 304.716 409.554 306.466 418.154 306.466C423.654 306.466 428.504 305.866 432.704 304.666C436.904 303.466 441.204 301.716 445.604 299.416C446.404 299.016 447.304 298.816 448.304 298.816C450.104 298.816 451.554 299.366 452.654 300.466C453.754 301.566 454.304 302.916 454.304 304.516C454.304 307.116 453.204 309.016 451.004 310.216C445.704 313.216 440.354 315.516 434.954 317.116C429.654 318.716 423.604 319.516 416.804 319.516ZM488.607 319.516C480.907 319.516 474.157 317.866 468.357 314.566C462.557 311.266 458.057 306.616 454.857 300.616C451.757 294.516 450.207 287.566 450.207 279.766C450.207 271.966 451.757 265.066 454.857 259.066C458.057 252.966 462.557 248.266 468.357 244.966C474.157 241.666 480.907 240.016 488.607 240.016C496.207 240.016 502.907 241.666 508.707 244.966C514.507 248.266 519.007 252.966 522.207 259.066C525.407 265.066 527.007 271.966 527.007 279.766C527.007 287.566 525.407 294.516 522.207 300.616C519.007 306.616 514.507 311.266 508.707 314.566C502.907 317.866 496.207 319.516 488.607 319.516ZM488.607 307.066C492.707 307.066 496.607 306.116 500.307 304.216C504.107 302.316 507.207 299.316 509.607 295.216C512.107 291.116 513.357 285.916 513.357 279.616C513.357 273.416 512.107 268.266 509.607 264.166C507.207 260.066 504.107 257.116 500.307 255.316C496.607 253.416 492.707 252.466 488.607 252.466C484.407 252.466 480.407 253.416 476.607 255.316C472.907 257.116 469.857 260.066 467.457 264.166C465.057 268.266 463.857 273.416 463.857 279.616C463.857 285.916 465.057 291.116 467.457 295.216C469.857 299.316 472.907 302.316 476.607 304.216C480.407 306.116 484.407 307.066 488.607 307.066ZM537.867 318.766C535.967 318.766 534.367 318.116 533.067 316.816C531.767 315.516 531.117 313.916 531.117 312.016V247.666C531.117 245.766 531.767 244.166 533.067 242.866C534.367 241.466 535.967 240.766 537.867 240.766C539.767 240.766 541.367 241.466 542.667 242.866C544.067 244.166 544.767 245.766 544.767 247.666V253.816C548.567 249.616 552.667 246.266 557.067 243.766C561.467 241.266 566.667 240.016 572.667 240.016C578.167 240.016 582.917 241.316 586.917 243.916C591.017 246.516 594.117 250.066 596.217 254.566C598.417 259.066 599.517 264.016 599.517 269.416V312.016C599.517 313.916 598.817 315.516 597.417 316.816C596.117 318.116 594.517 318.766 592.617 318.766C590.717 318.766 589.117 318.116 587.817 316.816C586.517 315.516 585.867 313.916 585.867 312.016V270.916C585.867 258.716 580.367 252.616 569.367 252.616C564.367 252.616 559.867 253.916 555.867 256.516C551.967 259.116 548.267 262.616 544.767 267.016V312.016C544.767 313.916 544.067 315.516 542.667 316.816C541.367 318.116 539.767 318.766 537.867 318.766ZM614.273 318.766C612.373 318.766 610.773 318.116 609.473 316.816C608.173 315.516 607.523 313.916 607.523 312.016V247.666C607.523 245.766 608.173 244.166 609.473 242.866C610.773 241.466 612.373 240.766 614.273 240.766C616.173 240.766 617.773 241.466 619.073 242.866C620.473 244.166 621.173 245.766 621.173 247.666V253.816C624.973 249.616 629.073 246.266 633.473 243.766C637.873 241.266 643.073 240.016 649.073 240.016C654.573 240.016 659.323 241.316 663.323 243.916C667.423 246.516 670.523 250.066 672.623 254.566C674.823 259.066 675.923 264.016 675.923 269.416V312.016C675.923 313.916 675.223 315.516 673.823 316.816C672.523 318.116 670.923 318.766 669.023 318.766C667.123 318.766 665.523 318.116 664.223 316.816C662.923 315.516 662.273 313.916 662.273 312.016V270.916C662.273 258.716 656.773 252.616 645.773 252.616C640.773 252.616 636.273 253.916 632.273 256.516C628.373 259.116 624.673 262.616 621.173 267.016V312.016C621.173 313.916 620.473 315.516 619.073 316.816C617.773 318.116 616.173 318.766 614.273 318.766ZM718.129 319.516C705.929 319.516 696.379 316.066 689.479 309.166C682.679 302.166 679.279 292.366 679.279 279.766C679.279 272.666 680.579 266.116 683.179 260.116C685.779 254.116 689.779 249.266 695.179 245.566C700.579 241.866 707.229 240.016 715.129 240.016C722.529 240.016 728.929 241.766 734.329 245.266C739.729 248.666 743.829 253.266 746.629 259.066C749.429 264.766 750.829 271.016 750.829 277.816C750.829 279.716 750.179 281.316 748.879 282.616C747.679 283.916 746.029 284.566 743.929 284.566H693.079C693.879 291.566 696.479 297.016 700.879 300.916C705.279 304.816 711.429 306.766 719.329 306.766C723.529 306.766 727.179 306.366 730.279 305.566C733.479 304.766 736.579 303.616 739.579 302.116C740.379 301.716 741.279 301.516 742.279 301.516C743.879 301.516 745.279 302.066 746.479 303.166C747.679 304.266 748.279 305.666 748.279 307.366C748.279 309.566 746.979 311.416 744.379 312.916C740.479 315.116 736.629 316.766 732.829 317.866C729.029 318.966 724.129 319.516 718.129 319.516ZM737.329 273.466C737.029 268.566 735.729 264.466 733.429 261.166C731.229 257.866 728.479 255.466 725.179 253.966C721.879 252.366 718.529 251.566 715.129 251.566C711.729 251.566 708.379 252.366 705.079 253.966C701.779 255.466 699.029 257.866 696.829 261.166C694.629 264.466 693.379 268.566 693.079 273.466H737.329ZM789.29 319.516C782.09 319.516 775.44 317.916 769.34 314.716C763.24 311.516 758.34 306.916 754.64 300.916C751.04 294.916 749.24 287.866 749.24 279.766C749.24 271.666 751.04 264.616 754.64 258.616C758.34 252.616 763.24 248.016 769.34 244.816C775.44 241.616 782.09 240.016 789.29 240.016C794.59 240.016 799.14 240.716 802.94 242.116C806.84 243.416 810.44 245.116 813.74 247.216C815.74 248.516 816.74 250.266 816.74 252.466C816.74 253.966 816.14 255.366 814.94 256.666C813.84 257.866 812.54 258.466 811.04 258.466C809.94 258.466 808.84 258.166 807.74 257.566C804.44 255.866 801.59 254.666 799.19 253.966C796.89 253.166 793.99 252.766 790.49 252.766C781.89 252.766 775.14 255.266 770.24 260.266C765.34 265.166 762.89 271.666 762.89 279.766C762.89 287.866 765.34 294.416 770.24 299.416C775.14 304.316 781.89 306.766 790.49 306.766C793.99 306.766 796.89 306.416 799.19 305.716C801.59 304.916 804.44 303.666 807.74 301.966C808.84 301.366 809.94 301.066 811.04 301.066C812.54 301.066 813.84 301.716 814.94 303.016C816.14 304.216 816.74 305.566 816.74 307.066C816.74 309.266 815.74 311.016 813.74 312.316C810.44 314.416 806.84 316.166 802.94 317.566C799.14 318.866 794.59 319.516 789.29 319.516ZM845.271 319.516C830.671 319.516 823.371 312.916 823.371 299.716V253.216H812.721C811.921 253.216 811.221 252.966 810.621 252.466C810.121 251.866 809.871 251.166 809.871 250.366C809.871 249.366 810.321 248.516 811.221 247.816L831.621 227.866C832.521 226.966 833.371 226.516 834.171 226.516C834.971 226.516 835.621 226.816 836.121 227.416C836.721 228.016 837.021 228.716 837.021 229.516V241.516H853.971C855.671 241.516 857.071 242.066 858.171 243.166C859.271 244.266 859.821 245.666 859.821 247.366C859.821 248.966 859.271 250.366 858.171 251.566C857.071 252.666 855.671 253.216 853.971 253.216H837.021V298.516C837.021 302.416 837.921 304.916 839.721 306.016C841.621 307.016 843.971 307.516 846.771 307.516C848.771 307.516 850.771 307.216 852.771 306.616C853.171 306.516 853.571 306.416 853.971 306.316C854.471 306.216 855.071 306.166 855.771 306.166C857.171 306.166 858.421 306.716 859.521 307.816C860.621 308.816 861.171 310.066 861.171 311.566C861.171 313.866 860.021 315.616 857.721 316.816C853.821 318.616 849.671 319.516 845.271 319.516ZM863.546 318.766C861.546 318.766 859.896 318.116 858.596 316.816C857.396 315.516 856.796 313.916 856.796 312.016C856.796 311.216 857.046 310.216 857.546 309.016L895.796 218.716C896.596 216.916 897.696 215.466 899.096 214.366C900.596 213.166 902.396 212.566 904.496 212.566H905.996C908.096 212.566 909.846 213.166 911.246 214.366C912.746 215.466 913.896 216.916 914.696 218.716L952.946 309.016C953.446 310.216 953.696 311.216 953.696 312.016C953.696 313.916 953.046 315.516 951.746 316.816C950.546 318.116 948.946 318.766 946.946 318.766C945.546 318.766 944.246 318.416 943.046 317.716C941.946 316.916 941.096 315.866 940.496 314.566L930.746 291.166H879.746L869.996 314.566C869.396 315.866 868.496 316.916 867.296 317.716C866.196 318.416 864.946 318.766 863.546 318.766ZM884.996 278.716H925.496L905.246 229.966L884.996 278.716ZM967.51 318.766C965.61 318.766 964.01 318.116 962.71 316.816C961.41 315.516 960.76 313.916 960.76 312.016V220.216C960.76 218.316 961.41 216.716 962.71 215.416C964.01 214.016 965.61 213.316 967.51 213.316H1001.71C1011.21 213.316 1018.96 214.916 1024.96 218.116C1030.96 221.316 1035.26 225.416 1037.86 230.416C1040.46 235.416 1041.76 240.816 1041.76 246.616C1041.76 252.416 1040.46 257.816 1037.86 262.816C1035.26 267.816 1030.96 271.916 1024.96 275.116C1018.96 278.316 1011.21 279.916 1001.71 279.916H974.41V312.016C974.41 313.916 973.71 315.516 972.31 316.816C971.01 318.116 969.41 318.766 967.51 318.766ZM1000.36 267.016C1010.56 267.016 1017.71 265.066 1021.81 261.166C1026.01 257.266 1028.11 252.416 1028.11 246.616C1028.11 240.816 1026.01 235.966 1021.81 232.066C1017.71 228.166 1010.56 226.216 1000.36 226.216H974.41V267.016H1000.36ZM1053.29 318.766C1051.39 318.766 1049.79 318.116 1048.49 316.816C1047.19 315.516 1046.54 313.916 1046.54 312.016V219.466C1046.54 217.566 1047.19 215.966 1048.49 214.666C1049.79 213.266 1051.39 212.566 1053.29 212.566C1055.19 212.566 1056.79 213.266 1058.09 214.666C1059.49 215.966 1060.19 217.566 1060.19 219.466V312.016C1060.19 313.916 1059.49 315.516 1058.09 316.816C1056.79 318.116 1055.19 318.766 1053.29 318.766Z" fill="#FF0000" fill-opacity="0.94"/>
<path d="M188.863 219.507L396.283 328.358H165.543L316.582 312.906L323.337 312.215L317.746 308.361L188.863 219.507Z" fill="#FF0000" fill-opacity="0.94" stroke="black" stroke-width="5"/>
<path d="M266.028 464.492C260.161 464.492 257.228 461.603 257.228 455.824C257.228 451.571 257.961 447.596 259.428 443.9C260.22 441.905 261.188 440.145 262.332 438.62C263.505 437.065 264.972 435.804 266.732 434.836C268.492 433.868 270.443 433.384 272.584 433.384C274.549 433.384 276.661 433.677 278.92 434.264L280.02 434.572L278.876 438.268C276.881 437.857 274.784 437.652 272.584 437.652C270.384 437.652 268.492 438.561 266.908 440.38C265.324 442.199 264.151 444.443 263.388 447.112C262.655 449.781 262.288 452.568 262.288 455.472C262.288 458.64 263.74 460.224 266.644 460.224C268.492 460.224 270.531 460.048 272.76 459.696L273.772 459.564L273.42 463.436C270.751 464.14 268.287 464.492 266.028 464.492ZM288.834 441.568C294.32 441.568 297.062 444.208 297.062 449.488C297.062 452.011 296.652 454.401 295.83 456.66C295.009 458.889 293.718 460.752 291.958 462.248C290.228 463.744 288.204 464.492 285.886 464.492C280.46 464.492 277.746 461.881 277.746 456.66C277.746 454.137 278.186 451.747 279.066 449.488C279.946 447.2 281.252 445.308 282.982 443.812C284.713 442.316 286.664 441.568 288.834 441.568ZM285.886 460.444C287.793 460.444 289.333 459.329 290.506 457.1C291.709 454.871 292.31 452.319 292.31 449.444C292.31 448.241 292.017 447.303 291.43 446.628C290.844 445.953 289.978 445.616 288.834 445.616C286.957 445.616 285.432 446.745 284.258 449.004C283.085 451.263 282.498 453.829 282.498 456.704C282.498 459.197 283.628 460.444 285.886 460.444ZM313.831 441.524C315.621 441.524 316.941 442.067 317.791 443.152C318.671 444.208 319.111 445.513 319.111 447.068C319.111 448.593 318.803 450.588 318.187 453.052L315.679 464.008H310.927L313.391 453.404C313.919 450.94 314.183 449.268 314.183 448.388C314.183 447.508 314.007 446.833 313.655 446.364C313.333 445.895 312.79 445.66 312.027 445.66C311.294 445.66 310.487 445.968 309.607 446.584C308.727 447.171 307.994 447.772 307.407 448.388L306.571 449.312L303.183 464.008H298.431L303.491 442.008H308.067L307.583 444.912C307.818 444.648 308.126 444.34 308.507 443.988C308.889 443.607 309.622 443.108 310.707 442.492C311.822 441.847 312.863 441.524 313.831 441.524ZM336.089 441.524C337.879 441.524 339.199 442.067 340.049 443.152C340.929 444.208 341.369 445.513 341.369 447.068C341.369 448.593 341.061 450.588 340.445 453.052L337.937 464.008H333.185L335.649 453.404C336.177 450.94 336.441 449.268 336.441 448.388C336.441 447.508 336.265 446.833 335.913 446.364C335.591 445.895 335.048 445.66 334.285 445.66C333.552 445.66 332.745 445.968 331.865 446.584C330.985 447.171 330.252 447.772 329.665 448.388L328.829 449.312L325.441 464.008H320.689L325.749 442.008H330.325L329.841 444.912C330.076 444.648 330.384 444.34 330.765 443.988C331.147 443.607 331.88 443.108 332.965 442.492C334.08 441.847 335.121 441.524 336.089 441.524ZM348.843 457.276C348.843 458.244 349.18 459.007 349.855 459.564C350.53 460.121 351.366 460.4 352.363 460.4C354.475 460.4 356.558 460.224 358.611 459.872L359.755 459.652L359.271 463.26C356.602 464.081 353.903 464.492 351.175 464.492C346.423 464.492 344.047 462.116 344.047 457.364C344.047 453.199 344.971 449.605 346.819 446.584C347.758 445.059 349.019 443.841 350.603 442.932C352.187 442.023 353.991 441.568 356.015 441.568C360.826 441.568 363.231 443.577 363.231 447.596C363.231 450.295 362.263 452.172 360.327 453.228C358.42 454.284 355.296 454.812 350.955 454.812H349.107C348.931 455.457 348.843 456.279 348.843 457.276ZM351.747 451.204C354.211 451.204 355.956 450.94 356.983 450.412C358.01 449.884 358.523 448.96 358.523 447.64C358.523 446.173 357.614 445.44 355.795 445.44C352.744 445.44 350.706 447.361 349.679 451.204H351.747ZM376.287 441.524C377.959 441.524 379.69 441.803 381.479 442.36L382.403 442.668L381.171 446.188C379.059 445.836 377.372 445.66 376.111 445.66C374.028 445.66 372.43 446.731 371.315 448.872C370.2 450.984 369.643 453.433 369.643 456.22C369.643 458.977 370.919 460.356 373.471 460.356C374.732 460.356 376.067 460.239 377.475 460.004L378.267 459.872L377.915 463.48C375.832 464.155 373.735 464.492 371.623 464.492C369.54 464.492 367.868 463.861 366.607 462.6C365.375 461.339 364.759 459.564 364.759 457.276C364.759 452.759 365.756 449.004 367.751 446.012C369.746 443.02 372.591 441.524 376.287 441.524ZM388.441 458.816C388.441 459.901 389.013 460.444 390.157 460.444L393.325 460.18L392.929 463.656C391.404 464.213 389.864 464.492 388.309 464.492C386.784 464.492 385.596 464.081 384.745 463.26C383.924 462.439 383.513 461.397 383.513 460.136C383.513 458.845 383.733 457.291 384.173 455.472L386.373 446.1H383.821L384.877 442.008H387.385L388.749 435.98H393.545L392.137 442.008H397.417L396.405 446.1H391.169L388.881 455.868C388.588 457.1 388.441 458.083 388.441 458.816ZM411.771 464.008V457.716H401.915L398.879 464.008H393.951L408.163 433.868H416.919L416.655 464.008H411.771ZM411.023 438.136L403.807 453.404H411.903L412.123 438.136H411.023ZM432.572 454.68H427.6L425.444 464.008H420.516L427.512 433.868H436.532C439.495 433.868 441.651 434.499 443 435.76C444.349 437.021 445.024 439.031 445.024 441.788C445.024 445.836 443.924 449.004 441.724 451.292C439.524 453.551 436.473 454.68 432.572 454.68ZM433.276 450.412C435.417 450.412 437.075 449.635 438.248 448.08C439.421 446.525 440.008 444.443 440.008 441.832C440.008 440.571 439.7 439.647 439.084 439.06C438.497 438.444 437.515 438.136 436.136 438.136H431.384L428.568 450.412H433.276ZM444.578 464.008L451.574 433.868H456.458L449.506 464.008H444.578ZM454.66 469.728H450.744L455.54 458.068H460.776L454.66 469.728ZM488.427 464.008V457.716H478.571L475.535 464.008H470.607L484.819 433.868H493.575L493.311 464.008H488.427ZM487.679 438.136L480.463 453.404H488.559L488.779 438.136H487.679ZM511.636 433.868H516.564L514.892 459.476H515.772L526.552 434.308H531.92L530.732 459.476H531.568L542.172 433.868H547.056L534.12 464.008H526.596L527.784 440.82L518.104 464.008H510.36L511.636 433.868ZM549.748 464.492C547.724 464.492 546.228 463.847 545.26 462.556C544.292 461.236 543.808 459.593 543.808 457.628C543.808 455.633 544.028 453.756 544.468 451.996C544.937 450.236 545.597 448.564 546.448 446.98C547.298 445.367 548.457 444.061 549.924 443.064C551.42 442.037 553.092 441.524 554.94 441.524C556.582 441.524 559.34 441.847 563.212 442.492L565.06 442.8L561.76 457.056L560.572 463.92L555.864 464.096C556.186 461.984 556.406 460.649 556.524 460.092C555.145 461.911 553.576 463.216 551.816 464.008C551.112 464.331 550.422 464.492 549.748 464.492ZM559.604 446.232C557.609 445.792 556.025 445.572 554.852 445.572C553.678 445.572 552.578 446.232 551.552 447.552C549.616 449.987 548.648 453.184 548.648 457.144C548.648 458.229 548.838 459.051 549.22 459.608C549.63 460.136 550.246 460.4 551.068 460.4C551.918 460.4 552.842 460.019 553.84 459.256C554.837 458.464 555.673 457.672 556.348 456.88L557.36 455.692L559.604 446.232ZM568.563 442.008H573.271L573.051 460.048H574.019L582.511 442.008H587.351L572.127 473.468H567.331L572.083 464.008H568.739L568.563 442.008ZM602.254 458.816C602.254 459.901 602.826 460.444 603.97 460.444L607.138 460.18L606.742 463.656C605.216 464.213 603.676 464.492 602.122 464.492C600.596 464.492 599.408 464.081 598.558 463.26C597.736 462.439 597.326 461.397 597.326 460.136C597.326 458.845 597.546 457.291 597.986 455.472L600.186 446.1H597.634L598.69 442.008H601.198L602.562 435.98H607.358L605.95 442.008H611.23L610.218 446.1H604.982L602.694 455.868C602.4 457.1 602.254 458.083 602.254 458.816ZM621.799 441.568C627.284 441.568 630.027 444.208 630.027 449.488C630.027 452.011 629.616 454.401 628.795 456.66C627.974 458.889 626.683 460.752 624.923 462.248C623.192 463.744 621.168 464.492 618.851 464.492C613.424 464.492 610.711 461.881 610.711 456.66C610.711 454.137 611.151 451.747 612.031 449.488C612.911 447.2 614.216 445.308 615.947 443.812C617.678 442.316 619.628 441.568 621.799 441.568ZM618.851 460.444C620.758 460.444 622.298 459.329 623.471 457.1C624.674 454.871 625.275 452.319 625.275 449.444C625.275 448.241 624.982 447.303 624.395 446.628C623.808 445.953 622.943 445.616 621.799 445.616C619.922 445.616 618.396 446.745 617.223 449.004C616.05 451.263 615.463 453.829 615.463 456.704C615.463 459.197 616.592 460.444 618.851 460.444ZM653.736 441.524C655.408 441.524 657.139 441.803 658.928 442.36L659.852 442.668L658.62 446.188C656.508 445.836 654.822 445.66 653.56 445.66C651.478 445.66 649.879 446.731 648.764 448.872C647.65 450.984 647.092 453.433 647.092 456.22C647.092 458.977 648.368 460.356 650.92 460.356C652.182 460.356 653.516 460.239 654.924 460.004L655.716 459.872L655.364 463.48C653.282 464.155 651.184 464.492 649.072 464.492C646.99 464.492 645.318 463.861 644.056 462.6C642.824 461.339 642.208 459.564 642.208 457.276C642.208 452.759 643.206 449.004 645.2 446.012C647.195 443.02 650.04 441.524 653.736 441.524ZM658.982 464.008L664.042 442.008H668.75L668.002 445.22C669 444.428 670.202 443.665 671.61 442.932C673.048 442.169 674.294 441.7 675.35 441.524L673.986 446.452C672.666 446.833 670.774 447.611 668.31 448.784L667.166 449.312L663.734 464.008H658.982ZM679.015 457.276C679.015 458.244 679.352 459.007 680.027 459.564C680.702 460.121 681.538 460.4 682.535 460.4C684.647 460.4 686.73 460.224 688.783 459.872L689.927 459.652L689.443 463.26C686.774 464.081 684.075 464.492 681.347 464.492C676.595 464.492 674.219 462.116 674.219 457.364C674.219 453.199 675.143 449.605 676.991 446.584C677.93 445.059 679.191 443.841 680.775 442.932C682.359 442.023 684.163 441.568 686.187 441.568C690.998 441.568 693.403 443.577 693.403 447.596C693.403 450.295 692.435 452.172 690.499 453.228C688.592 454.284 685.468 454.812 681.127 454.812H679.279C679.103 455.457 679.015 456.279 679.015 457.276ZM681.919 451.204C684.383 451.204 686.128 450.94 687.155 450.412C688.182 449.884 688.695 448.96 688.695 447.64C688.695 446.173 687.786 445.44 685.967 445.44C682.916 445.44 680.878 447.361 679.851 451.204H681.919ZM700.783 464.492C698.759 464.492 697.263 463.847 696.295 462.556C695.327 461.236 694.843 459.593 694.843 457.628C694.843 455.633 695.063 453.756 695.503 451.996C695.972 450.236 696.632 448.564 697.483 446.98C698.334 445.367 699.492 444.061 700.959 443.064C702.455 442.037 704.127 441.524 705.975 441.524C707.618 441.524 710.375 441.847 714.247 442.492L716.095 442.8L712.795 457.056L711.607 463.92L706.899 464.096C707.222 461.984 707.442 460.649 707.559 460.092C706.18 461.911 704.611 463.216 702.851 464.008C702.147 464.331 701.458 464.492 700.783 464.492ZM710.639 446.232C708.644 445.792 707.06 445.572 705.887 445.572C704.714 445.572 703.614 446.232 702.587 447.552C700.651 449.987 699.683 453.184 699.683 457.144C699.683 458.229 699.874 459.051 700.255 459.608C700.666 460.136 701.282 460.4 702.103 460.4C702.954 460.4 703.878 460.019 704.875 459.256C705.872 458.464 706.708 457.672 707.383 456.88L708.395 455.692L710.639 446.232ZM723.382 458.816C723.382 459.901 723.954 460.444 725.098 460.444L728.266 460.18L727.87 463.656C726.345 464.213 724.805 464.492 723.25 464.492C721.725 464.492 720.537 464.081 719.686 463.26C718.865 462.439 718.454 461.397 718.454 460.136C718.454 458.845 718.674 457.291 719.114 455.472L721.314 446.1H718.762L719.818 442.008H722.326L723.69 435.98H728.486L727.078 442.008H732.358L731.346 446.1H726.11L723.822 455.868C723.529 457.1 723.382 458.083 723.382 458.816ZM736.636 457.276C736.636 458.244 736.973 459.007 737.648 459.564C738.323 460.121 739.159 460.4 740.156 460.4C742.268 460.4 744.351 460.224 746.404 459.872L747.548 459.652L747.064 463.26C744.395 464.081 741.696 464.492 738.968 464.492C734.216 464.492 731.84 462.116 731.84 457.364C731.84 453.199 732.764 449.605 734.612 446.584C735.551 445.059 736.812 443.841 738.396 442.932C739.98 442.023 741.784 441.568 743.808 441.568C748.619 441.568 751.024 443.577 751.024 447.596C751.024 450.295 750.056 452.172 748.12 453.228C746.213 454.284 743.089 454.812 738.748 454.812H736.9C736.724 455.457 736.636 456.279 736.636 457.276ZM739.54 451.204C742.004 451.204 743.749 450.94 744.776 450.412C745.803 449.884 746.316 448.96 746.316 447.64C746.316 446.173 745.407 445.44 743.588 445.44C740.537 445.44 738.499 447.361 737.472 451.204H739.54ZM776.168 441.524C780.363 441.524 782.46 443.841 782.46 448.476C782.46 451.175 782.049 453.712 781.228 456.088C780.407 458.464 779.116 460.459 777.356 462.072C775.596 463.656 773.513 464.448 771.108 464.448C768.468 464.448 765.681 464.125 762.748 463.48L761.208 463.172L768.16 432.856H772.956L770.316 444.252C770.991 443.577 771.915 442.961 773.088 442.404C774.261 441.817 775.288 441.524 776.168 441.524ZM766.708 459.916C768.321 460.239 769.729 460.4 770.932 460.4C772.164 460.4 773.22 459.975 774.1 459.124C775.009 458.244 775.699 457.173 776.168 455.912C777.107 453.331 777.576 451.013 777.576 448.96C777.576 447.933 777.385 447.127 777.004 446.54C776.623 445.924 775.977 445.616 775.068 445.616C774.188 445.616 773.293 445.851 772.384 446.32C771.475 446.789 770.741 447.259 770.184 447.728L769.348 448.476L766.708 459.916ZM790.717 464.492C788.693 464.492 787.197 463.847 786.229 462.556C785.261 461.236 784.777 459.593 784.777 457.628C784.777 455.633 784.997 453.756 785.437 451.996C785.906 450.236 786.566 448.564 787.417 446.98C788.267 445.367 789.426 444.061 790.893 443.064C792.389 442.037 794.061 441.524 795.909 441.524C797.551 441.524 800.309 441.847 804.181 442.492L806.029 442.8L802.729 457.056L801.541 463.92L796.833 464.096C797.155 461.984 797.375 460.649 797.493 460.092C796.114 461.911 794.545 463.216 792.785 464.008C792.081 464.331 791.391 464.492 790.717 464.492ZM800.573 446.232C798.578 445.792 796.994 445.572 795.821 445.572C794.647 445.572 793.547 446.232 792.521 447.552C790.585 449.987 789.617 453.184 789.617 457.144C789.617 458.229 789.807 459.051 790.189 459.608C790.599 460.136 791.215 460.4 792.037 460.4C792.887 460.4 793.811 460.019 794.809 459.256C795.806 458.464 796.642 457.672 797.317 456.88L798.329 455.692L800.573 446.232ZM819.08 441.524C820.752 441.524 822.483 441.803 824.272 442.36L825.196 442.668L823.964 446.188C821.852 445.836 820.165 445.66 818.904 445.66C816.821 445.66 815.223 446.731 814.108 448.872C812.993 450.984 812.436 453.433 812.436 456.22C812.436 458.977 813.712 460.356 816.264 460.356C817.525 460.356 818.86 460.239 820.268 460.004L821.06 459.872L820.708 463.48C818.625 464.155 816.528 464.492 814.416 464.492C812.333 464.492 810.661 463.861 809.4 462.6C808.168 461.339 807.552 459.564 807.552 457.276C807.552 452.759 808.549 449.004 810.544 446.012C812.539 443.02 815.384 441.524 819.08 441.524ZM829.078 464.008H824.326L831.498 432.856H836.25L832.158 450.544L834.226 450.324L840.87 442.052H846.194L837.79 452.436L841.266 464.008H836.338L833.522 454.284L831.278 454.46L829.078 464.008ZM849.859 457.276C849.859 458.244 850.196 459.007 850.871 459.564C851.545 460.121 852.381 460.4 853.379 460.4C855.491 460.4 857.573 460.224 859.627 459.872L860.771 459.652L860.287 463.26C857.617 464.081 854.919 464.492 852.191 464.492C847.439 464.492 845.063 462.116 845.063 457.364C845.063 453.199 845.987 449.605 847.835 446.584C848.773 445.059 850.035 443.841 851.619 442.932C853.203 442.023 855.007 441.568 857.031 441.568C861.841 441.568 864.247 443.577 864.247 447.596C864.247 450.295 863.279 452.172 861.343 453.228C859.436 454.284 856.312 454.812 851.971 454.812H850.123C849.947 455.457 849.859 456.279 849.859 457.276ZM852.763 451.204C855.227 451.204 856.972 450.94 857.999 450.412C859.025 449.884 859.539 448.96 859.539 447.64C859.539 446.173 858.629 445.44 856.811 445.44C853.76 445.44 851.721 447.361 850.695 451.204H852.763ZM880.031 441.524C881.82 441.524 883.14 442.067 883.991 443.152C884.871 444.208 885.311 445.513 885.311 447.068C885.311 448.593 885.003 450.588 884.387 453.052L881.879 464.008H877.127L879.591 453.404C880.119 450.94 880.383 449.268 880.383 448.388C880.383 447.508 880.207 446.833 879.855 446.364C879.532 445.895 878.989 445.66 878.227 445.66C877.493 445.66 876.687 445.968 875.807 446.584C874.927 447.171 874.193 447.772 873.607 448.388L872.771 449.312L869.383 464.008H864.631L869.691 442.008H874.267L873.783 444.912C874.017 444.648 874.325 444.34 874.707 443.988C875.088 443.607 875.821 443.108 876.907 442.492C878.021 441.847 879.063 441.524 880.031 441.524ZM893.928 464.492C891.963 464.492 890.467 463.876 889.44 462.644C888.443 461.412 887.944 459.579 887.944 457.144C887.944 454.709 888.34 452.333 889.132 450.016C889.954 447.669 891.23 445.675 892.96 444.032C894.691 442.389 896.7 441.568 898.988 441.568C900.132 441.568 901.672 441.773 903.608 442.184L904.532 442.404L906.732 432.856H911.528L904.312 464.008H899.692L900.264 461.016C900.059 461.28 899.766 461.603 899.384 461.984C899.003 462.365 898.255 462.879 897.14 463.524C896.026 464.169 894.955 464.492 893.928 464.492ZM903.652 446.232C901.863 445.821 900.323 445.616 899.032 445.616C897.742 445.616 896.598 446.276 895.6 447.596C894.632 448.916 893.914 450.456 893.444 452.216C893.004 453.947 892.784 455.633 892.784 457.276C892.784 459.388 893.679 460.444 895.468 460.444C896.114 460.444 896.92 460.107 897.888 459.432C898.886 458.757 899.707 458.083 900.352 457.408L901.32 456.396L903.652 446.232ZM922.72 442.008H927.516L926.548 459.916H927.472L935.348 442.448H940.804L940.408 459.916H941.332L948.768 442.008H953.608L944.192 464.008H936.096L936.492 448.784L929.804 464.008H921.84L922.72 442.008ZM952.158 464.008L957.218 442.008H961.97L956.91 464.008H952.158ZM957.922 438.752L959.11 433.604H963.95L962.762 438.752H957.922ZM969.035 458.816C969.035 459.901 969.607 460.444 970.751 460.444L973.919 460.18L973.523 463.656C971.997 464.213 970.457 464.492 968.903 464.492C967.377 464.492 966.189 464.081 965.339 463.26C964.517 462.439 964.107 461.397 964.107 460.136C964.107 458.845 964.327 457.291 964.767 455.472L966.967 446.1H964.415L965.471 442.008H967.979L969.343 435.98H974.139L972.731 442.008H978.011L976.999 446.1H971.763L969.475 455.868C969.181 457.1 969.035 458.083 969.035 458.816ZM991.792 441.524C993.582 441.524 994.902 442.067 995.752 443.152C996.632 444.208 997.072 445.499 997.072 447.024C997.072 448.52 996.764 450.544 996.148 453.096L993.64 464.008H988.888L991.352 453.404C991.88 451.292 992.144 449.708 992.144 448.652C992.144 447.596 991.968 446.833 991.616 446.364C991.294 445.895 990.766 445.66 990.032 445.66C989.328 445.66 988.522 445.968 987.612 446.584C986.732 447.171 985.999 447.772 985.412 448.388L984.532 449.312L981.144 464.008H976.392L983.564 432.856H988.316L985.588 444.868C985.823 444.604 986.131 444.296 986.512 443.944C986.894 443.563 987.627 443.064 988.712 442.448C989.798 441.832 990.824 441.524 991.792 441.524ZM527.945 508.524C529.617 508.524 531.348 508.803 533.137 509.36L534.061 509.668L532.829 513.188C530.717 512.836 529.031 512.66 527.769 512.66C525.687 512.66 524.088 513.731 522.973 515.872C521.859 517.984 521.301 520.433 521.301 523.22C521.301 525.977 522.577 527.356 525.129 527.356C526.391 527.356 527.725 527.239 529.133 527.004L529.925 526.872L529.573 530.48C527.491 531.155 525.393 531.492 523.281 531.492C521.199 531.492 519.527 530.861 518.265 529.6C517.033 528.339 516.417 526.564 516.417 524.276C516.417 519.759 517.415 516.004 519.409 513.012C521.404 510.02 524.249 508.524 527.945 508.524ZM545.121 508.568C550.607 508.568 553.349 511.208 553.349 516.488C553.349 519.011 552.939 521.401 552.117 523.66C551.296 525.889 550.005 527.752 548.245 529.248C546.515 530.744 544.491 531.492 542.173 531.492C536.747 531.492 534.033 528.881 534.033 523.66C534.033 521.137 534.473 518.747 535.353 516.488C536.233 514.2 537.539 512.308 539.269 510.812C541 509.316 542.951 508.568 545.121 508.568ZM542.173 527.444C544.08 527.444 545.62 526.329 546.793 524.1C547.996 521.871 548.597 519.319 548.597 516.444C548.597 515.241 548.304 514.303 547.717 513.628C547.131 512.953 546.265 512.616 545.121 512.616C543.244 512.616 541.719 513.745 540.545 516.004C539.372 518.263 538.785 520.829 538.785 523.704C538.785 526.197 539.915 527.444 542.173 527.444ZM570.427 515.52C570.427 513.613 569.649 512.66 568.095 512.66C567.508 512.66 566.775 512.968 565.895 513.584C565.015 514.171 564.281 514.772 563.695 515.388L562.859 516.312L559.471 531.008H554.719L559.779 509.008H564.355L563.871 511.868C563.959 511.78 564.061 511.663 564.179 511.516C564.325 511.369 564.619 511.105 565.059 510.724C565.528 510.313 566.012 509.961 566.511 509.668C567.743 508.905 568.96 508.524 570.163 508.524C571.395 508.524 572.392 508.817 573.155 509.404C573.947 509.961 574.431 510.533 574.607 511.12L574.915 512C575.179 511.736 575.531 511.413 575.971 511.032C576.44 510.651 577.291 510.137 578.523 509.492C579.755 508.847 580.899 508.524 581.955 508.524C583.744 508.524 585.064 509.067 585.915 510.152C586.765 511.208 587.191 512.469 587.191 513.936C587.191 515.403 586.912 517.456 586.355 520.096L583.847 531.008H579.051L581.603 520.404C582.131 517.94 582.395 516.356 582.395 515.652C582.395 513.657 581.661 512.66 580.195 512.66C579.579 512.66 578.845 512.924 577.995 513.452C577.144 513.98 576.455 514.508 575.927 515.036L575.135 515.828C574.988 517.412 574.753 518.835 574.431 520.096L571.923 531.008H567.171L569.635 520.404C570.163 517.94 570.427 516.312 570.427 515.52ZM604.148 508.524C606.201 508.524 607.726 509.155 608.724 510.416C609.75 511.677 610.264 513.496 610.264 515.872C610.264 518.219 609.853 520.58 609.032 522.956C608.24 525.303 606.978 527.312 605.248 528.984C603.517 530.627 601.508 531.448 599.22 531.448C597.724 531.448 596.154 531.243 594.512 530.832L593.632 530.612L591.344 540.468H586.636L593.896 509.008H598.56L597.944 512C598.178 511.736 598.486 511.413 598.868 511.032C599.249 510.651 599.982 510.137 601.068 509.492C602.182 508.847 603.209 508.524 604.148 508.524ZM602.696 512.616C602.08 512.616 601.273 512.953 600.276 513.628C599.308 514.303 598.486 514.963 597.812 515.608L596.844 516.62L594.556 526.74C596.345 527.18 597.885 527.4 599.176 527.4C600.466 527.4 601.596 526.74 602.564 525.42C603.561 524.071 604.28 522.545 604.72 520.844C605.189 519.113 605.424 517.441 605.424 515.828C605.424 513.687 604.514 512.616 602.696 512.616ZM623.668 508.568C629.154 508.568 631.896 511.208 631.896 516.488C631.896 519.011 631.486 521.401 630.664 523.66C629.843 525.889 628.552 527.752 626.792 529.248C625.062 530.744 623.038 531.492 620.72 531.492C615.294 531.492 612.58 528.881 612.58 523.66C612.58 521.137 613.02 518.747 613.9 516.488C614.78 514.2 616.086 512.308 617.816 510.812C619.547 509.316 621.498 508.568 623.668 508.568ZM620.72 527.444C622.627 527.444 624.167 526.329 625.34 524.1C626.543 521.871 627.144 519.319 627.144 516.444C627.144 515.241 626.851 514.303 626.264 513.628C625.678 512.953 624.812 512.616 623.668 512.616C621.791 512.616 620.266 513.745 619.092 516.004C617.919 518.263 617.332 520.829 617.332 523.704C617.332 526.197 618.462 527.444 620.72 527.444ZM648.665 508.524C650.455 508.524 651.775 509.067 652.625 510.152C653.505 511.208 653.945 512.513 653.945 514.068C653.945 515.593 653.637 517.588 653.021 520.052L650.513 531.008H645.761L648.225 520.404C648.753 517.94 649.017 516.268 649.017 515.388C649.017 514.508 648.841 513.833 648.489 513.364C648.167 512.895 647.624 512.66 646.861 512.66C646.128 512.66 645.321 512.968 644.441 513.584C643.561 514.171 642.828 514.772 642.241 515.388L641.405 516.312L638.017 531.008H633.265L638.325 509.008H642.901L642.417 511.912C642.652 511.648 642.96 511.34 643.341 510.988C643.723 510.607 644.456 510.108 645.541 509.492C646.656 508.847 647.697 508.524 648.665 508.524ZM661.419 524.276C661.419 525.244 661.757 526.007 662.431 526.564C663.106 527.121 663.942 527.4 664.939 527.4C667.051 527.4 669.134 527.224 671.187 526.872L672.331 526.652L671.847 530.26C669.178 531.081 666.479 531.492 663.751 531.492C658.999 531.492 656.623 529.116 656.623 524.364C656.623 520.199 657.547 516.605 659.395 513.584C660.334 512.059 661.595 510.841 663.179 509.932C664.763 509.023 666.567 508.568 668.591 508.568C673.402 508.568 675.807 510.577 675.807 514.596C675.807 517.295 674.839 519.172 672.903 520.228C670.997 521.284 667.873 521.812 663.531 521.812H661.683C661.507 522.457 661.419 523.279 661.419 524.276ZM664.323 518.204C666.787 518.204 668.533 517.94 669.559 517.412C670.586 516.884 671.099 515.96 671.099 514.64C671.099 513.173 670.19 512.44 668.371 512.44C665.321 512.44 663.282 514.361 662.255 518.204H664.323ZM691.591 508.524C693.381 508.524 694.701 509.067 695.551 510.152C696.431 511.208 696.871 512.513 696.871 514.068C696.871 515.593 696.563 517.588 695.947 520.052L693.439 531.008H688.687L691.151 520.404C691.679 517.94 691.943 516.268 691.943 515.388C691.943 514.508 691.767 513.833 691.415 513.364C691.093 512.895 690.55 512.66 689.787 512.66C689.054 512.66 688.247 512.968 687.367 513.584C686.487 514.171 685.754 514.772 685.167 515.388L684.331 516.312L680.943 531.008H676.191L681.251 509.008H685.827L685.343 511.912C685.578 511.648 685.886 511.34 686.267 510.988C686.649 510.607 687.382 510.108 688.467 509.492C689.582 508.847 690.623 508.524 691.591 508.524ZM705.357 525.816C705.357 526.901 705.929 527.444 707.073 527.444L710.241 527.18L709.845 530.656C708.32 531.213 706.78 531.492 705.225 531.492C703.7 531.492 702.512 531.081 701.661 530.26C700.84 529.439 700.429 528.397 700.429 527.136C700.429 525.845 700.649 524.291 701.089 522.472L703.289 513.1H700.737L701.793 509.008H704.301L705.665 502.98H710.461L709.053 509.008H714.333L713.321 513.1H708.085L705.797 522.868C705.504 524.1 705.357 525.083 705.357 525.816ZM723.539 512.616C722.395 512.616 721.485 512.909 720.811 513.496C720.165 514.083 719.843 514.743 719.843 515.476C719.843 516.209 720.077 516.723 720.547 517.016C721.016 517.309 721.881 517.647 723.143 518.028C724.404 518.38 725.328 518.673 725.915 518.908C726.501 519.143 727.088 519.451 727.675 519.832C728.731 520.507 729.259 521.665 729.259 523.308C729.259 525.977 728.364 528.016 726.575 529.424C724.785 530.803 722.439 531.492 719.535 531.492C717.305 531.492 715.179 531.169 713.155 530.524L712.187 530.216L713.067 526.652C715.853 527.18 718.068 527.444 719.711 527.444C722.849 527.444 724.419 526.373 724.419 524.232C724.419 523.675 724.184 523.264 723.715 523C723.245 522.736 722.16 522.384 720.459 521.944C718.787 521.504 717.467 520.917 716.499 520.184C715.531 519.421 715.047 518.321 715.047 516.884C715.047 514.332 715.912 512.308 717.643 510.812C719.373 509.316 721.5 508.568 724.023 508.568C726.457 508.568 728.672 508.861 730.667 509.448L731.635 509.712L730.755 513.276C727.851 512.836 725.445 512.616 723.539 512.616ZM730.124 531.008L731.444 525.068H736.284L734.964 531.008H730.124Z" fill="white"/>
</svg>
