<svg width="3199" height="1041" viewBox="0 0 3199 1041" fill="none" xmlns="http://www.w3.org/2000/svg">
<path d="M899.205 691.24C864.272 691.24 832.832 683.729 804.885 668.708C777.288 653.337 755.454 631.504 739.385 603.208C723.665 574.563 715.805 541.201 715.805 503.124C715.805 465.047 723.665 431.86 739.385 403.564C755.454 374.919 777.288 353.085 804.885 338.064C832.832 322.693 864.272 315.008 899.205 315.008C922.96 315.008 944.094 317.803 962.609 323.392C981.473 328.981 1000.16 337.016 1018.68 347.496C1026.36 351.688 1030.21 358.325 1030.21 367.408C1030.21 372.648 1028.28 377.364 1024.44 381.556C1020.6 385.399 1015.53 387.32 1009.24 387.32C1005.75 387.32 1002.61 386.621 999.813 385.224C984.442 377.189 969.421 371.076 954.749 366.884C940.077 362.692 923.134 360.596 903.921 360.596C873.878 360.596 848.202 366.884 826.893 379.46C805.933 391.687 790.038 408.629 779.209 430.288C768.729 451.597 763.489 475.876 763.489 503.124C763.489 530.372 768.729 554.825 779.209 576.484C790.038 597.793 805.933 614.736 826.893 627.312C848.202 639.539 873.878 645.652 903.921 645.652C923.134 645.652 940.077 643.556 954.749 639.364C969.421 635.172 984.442 629.059 999.813 621.024C1002.61 619.627 1005.75 618.928 1009.24 618.928C1015.53 618.928 1020.6 620.849 1024.44 624.692C1028.28 628.535 1030.21 633.251 1030.21 638.84C1030.21 647.923 1026.36 654.56 1018.68 658.752C1000.16 669.232 981.473 677.267 962.609 682.856C944.094 688.445 922.96 691.24 899.205 691.24ZM1150.04 691.24C1123.14 691.24 1099.56 685.476 1079.3 673.948C1059.04 662.42 1043.32 646.176 1032.14 625.216C1021.31 603.907 1015.89 579.628 1015.89 552.38C1015.89 525.132 1021.31 501.028 1032.14 480.068C1043.32 458.759 1059.04 442.34 1079.3 430.812C1099.56 419.284 1123.14 413.52 1150.04 413.52C1176.59 413.52 1199.99 419.284 1220.25 430.812C1240.51 442.34 1256.23 458.759 1267.41 480.068C1278.59 501.028 1284.18 525.132 1284.18 552.38C1284.18 579.628 1278.59 603.907 1267.41 625.216C1256.23 646.176 1240.51 662.42 1220.25 673.948C1199.99 685.476 1176.59 691.24 1150.04 691.24ZM1150.04 647.748C1164.36 647.748 1177.98 644.429 1190.91 637.792C1204.18 631.155 1215.01 620.675 1223.4 606.352C1232.13 592.029 1236.5 573.864 1236.5 551.856C1236.5 530.197 1232.13 512.207 1223.4 497.884C1215.01 483.561 1204.18 473.256 1190.91 466.968C1177.98 460.331 1164.36 457.012 1150.04 457.012C1135.37 457.012 1121.39 460.331 1108.12 466.968C1095.19 473.256 1084.54 483.561 1076.15 497.884C1067.77 512.207 1063.58 530.197 1063.58 551.856C1063.58 573.864 1067.77 592.029 1076.15 606.352C1084.54 620.675 1095.19 631.155 1108.12 637.792C1121.39 644.429 1135.37 647.748 1150.04 647.748ZM1322.12 688.62C1315.48 688.62 1309.89 686.349 1305.35 681.808C1300.81 677.267 1298.54 671.677 1298.54 665.04V440.244C1298.54 433.607 1300.81 428.017 1305.35 423.476C1309.89 418.585 1315.48 416.14 1322.12 416.14C1328.76 416.14 1334.34 418.585 1338.89 423.476C1343.78 428.017 1346.22 433.607 1346.22 440.244V461.728C1359.5 447.056 1373.82 435.353 1389.19 426.62C1404.56 417.887 1422.73 413.52 1443.69 413.52C1462.9 413.52 1479.49 418.061 1493.47 427.144C1507.79 436.227 1518.62 448.628 1525.95 464.348C1533.64 480.068 1537.48 497.36 1537.48 516.224V665.04C1537.48 671.677 1535.04 677.267 1530.15 681.808C1525.6 686.349 1520.02 688.62 1513.38 688.62C1506.74 688.62 1501.15 686.349 1496.61 681.808C1492.07 677.267 1489.8 671.677 1489.8 665.04V521.464C1489.8 478.845 1470.58 457.536 1432.16 457.536C1414.69 457.536 1398.97 462.077 1385 471.16C1371.37 480.243 1358.45 492.469 1346.22 507.84V665.04C1346.22 671.677 1343.78 677.267 1338.89 681.808C1334.34 686.349 1328.76 688.62 1322.12 688.62ZM1589.03 688.62C1582.39 688.62 1576.8 686.349 1572.26 681.808C1567.72 677.267 1565.45 671.677 1565.45 665.04V440.244C1565.45 433.607 1567.72 428.017 1572.26 423.476C1576.8 418.585 1582.39 416.14 1589.03 416.14C1595.67 416.14 1601.26 418.585 1605.8 423.476C1610.69 428.017 1613.13 433.607 1613.13 440.244V461.728C1626.41 447.056 1640.73 435.353 1656.1 426.62C1671.47 417.887 1689.64 413.52 1710.6 413.52C1729.81 413.52 1746.41 418.061 1760.38 427.144C1774.7 436.227 1785.53 448.628 1792.87 464.348C1800.55 480.068 1804.39 497.36 1804.39 516.224V665.04C1804.39 671.677 1801.95 677.267 1797.06 681.808C1792.52 686.349 1786.93 688.62 1780.29 688.62C1773.65 688.62 1768.06 686.349 1763.52 681.808C1758.98 677.267 1756.71 671.677 1756.71 665.04V521.464C1756.71 478.845 1737.5 457.536 1699.07 457.536C1681.6 457.536 1665.88 462.077 1651.91 471.16C1638.29 480.243 1625.36 492.469 1613.13 507.84V665.04C1613.13 671.677 1610.69 677.267 1605.8 681.808C1601.26 686.349 1595.67 688.62 1589.03 688.62ZM1951.84 691.24C1909.22 691.24 1875.86 679.188 1851.75 655.084C1828 630.631 1816.12 596.396 1816.12 552.38C1816.12 527.577 1820.66 504.696 1829.74 483.736C1838.83 462.776 1852.8 445.833 1871.66 432.908C1890.53 419.983 1913.76 413.52 1941.36 413.52C1967.21 413.52 1989.56 419.633 2008.43 431.86C2027.29 443.737 2041.61 459.807 2051.4 480.068C2061.18 499.98 2066.07 521.813 2066.07 545.568C2066.07 552.205 2063.8 557.795 2059.26 562.336C2055.06 566.877 2049.3 569.148 2041.96 569.148H1864.33C1867.12 593.601 1876.2 612.64 1891.58 626.264C1906.95 639.888 1928.43 646.7 1956.03 646.7C1970.7 646.7 1983.45 645.303 1994.28 642.508C2005.46 639.713 2016.29 635.696 2026.77 630.456C2029.56 629.059 2032.71 628.36 2036.2 628.36C2041.79 628.36 2046.68 630.281 2050.87 634.124C2055.06 637.967 2057.16 642.857 2057.16 648.796C2057.16 656.481 2052.62 662.944 2043.54 668.184C2029.91 675.869 2016.46 681.633 2003.19 685.476C1989.91 689.319 1972.8 691.24 1951.84 691.24ZM2018.91 530.372C2017.86 513.255 2013.32 498.932 2005.28 487.404C1997.6 475.876 1987.99 467.492 1976.46 462.252C1964.94 456.663 1953.23 453.868 1941.36 453.868C1929.48 453.868 1917.78 456.663 1906.25 462.252C1894.72 467.492 1885.11 475.876 1877.43 487.404C1869.74 498.932 1865.38 513.255 1864.33 530.372H2018.91ZM2200.42 691.24C2175.27 691.24 2152.04 685.651 2130.73 674.472C2109.42 663.293 2092.31 647.224 2079.38 626.264C2066.8 605.304 2060.52 580.676 2060.52 552.38C2060.52 524.084 2066.8 499.456 2079.38 478.496C2092.31 457.536 2109.42 441.467 2130.73 430.288C2152.04 419.109 2175.27 413.52 2200.42 413.52C2218.94 413.52 2234.83 415.965 2248.11 420.856C2261.73 425.397 2274.31 431.336 2285.84 438.672C2292.82 443.213 2296.32 449.327 2296.32 457.012C2296.32 462.252 2294.22 467.143 2290.03 471.684C2286.19 475.876 2281.64 477.972 2276.4 477.972C2272.56 477.972 2268.72 476.924 2264.88 474.828C2253.35 468.889 2243.39 464.697 2235.01 462.252C2226.97 459.457 2216.84 458.06 2204.62 458.06C2174.57 458.06 2150.99 466.793 2133.88 484.26C2116.76 501.377 2108.2 524.084 2108.2 552.38C2108.2 580.676 2116.76 603.557 2133.88 621.024C2150.99 638.141 2174.57 646.7 2204.62 646.7C2216.84 646.7 2226.97 645.477 2235.01 643.032C2243.39 640.237 2253.35 635.871 2264.88 629.932C2268.72 627.836 2272.56 626.788 2276.4 626.788C2281.64 626.788 2286.19 629.059 2290.03 633.6C2294.22 637.792 2296.32 642.508 2296.32 647.748C2296.32 655.433 2292.82 661.547 2285.84 666.088C2274.31 673.424 2261.73 679.537 2248.11 684.428C2234.83 688.969 2218.94 691.24 2200.42 691.24ZM2395.98 691.24C2344.98 691.24 2319.48 668.184 2319.48 622.072V459.632H2282.27C2279.48 459.632 2277.03 458.759 2274.94 457.012C2273.19 454.916 2272.32 452.471 2272.32 449.676C2272.32 446.183 2273.89 443.213 2277.03 440.768L2348.3 371.076C2351.44 367.932 2354.41 366.36 2357.21 366.36C2360 366.36 2362.27 367.408 2364.02 369.504C2366.11 371.6 2367.16 374.045 2367.16 376.84V418.76H2426.37C2432.31 418.76 2437.2 420.681 2441.05 424.524C2444.89 428.367 2446.81 433.257 2446.81 439.196C2446.81 444.785 2444.89 449.676 2441.05 453.868C2437.2 457.711 2432.31 459.632 2426.37 459.632H2367.16V617.88C2367.16 631.504 2370.31 640.237 2376.59 644.08C2383.23 647.573 2391.44 649.32 2401.22 649.32C2408.21 649.32 2415.2 648.272 2422.18 646.176C2423.58 645.827 2424.98 645.477 2426.37 645.128C2428.12 644.779 2430.22 644.604 2432.66 644.604C2437.55 644.604 2441.92 646.525 2445.76 650.368C2449.6 653.861 2451.53 658.228 2451.53 663.468C2451.53 671.503 2447.51 677.616 2439.47 681.808C2425.85 688.096 2411.35 691.24 2395.98 691.24ZM2459.82 688.62C2452.84 688.62 2447.07 686.349 2442.53 681.808C2438.34 677.267 2436.24 671.677 2436.24 665.04C2436.24 662.245 2437.12 658.752 2438.86 654.56L2572.48 339.112C2575.28 332.824 2579.12 327.759 2584.01 323.916C2589.25 319.724 2595.54 317.628 2602.88 317.628H2608.12C2615.45 317.628 2621.57 319.724 2626.46 323.916C2631.7 327.759 2635.71 332.824 2638.51 339.112L2772.13 654.56C2773.87 658.752 2774.75 662.245 2774.75 665.04C2774.75 671.677 2772.48 677.267 2767.94 681.808C2763.74 686.349 2758.15 688.62 2751.17 688.62C2746.28 688.62 2741.74 687.397 2737.54 684.952C2733.7 682.157 2730.73 678.489 2728.64 673.948L2694.58 592.204H2516.42L2482.36 673.948C2480.26 678.489 2477.12 682.157 2472.92 684.952C2469.08 687.397 2464.71 688.62 2459.82 688.62ZM2534.76 548.712H2676.24L2605.5 378.412L2534.76 548.712ZM2823.01 688.62C2816.37 688.62 2810.78 686.349 2806.24 681.808C2801.7 677.267 2799.43 671.677 2799.43 665.04V344.352C2799.43 337.715 2801.7 332.125 2806.24 327.584C2810.78 322.693 2816.37 320.248 2823.01 320.248H2942.48C2975.66 320.248 3002.74 325.837 3023.7 337.016C3044.66 348.195 3059.68 362.517 3068.76 379.984C3077.84 397.451 3082.39 416.315 3082.39 436.576C3082.39 456.837 3077.84 475.701 3068.76 493.168C3059.68 510.635 3044.66 524.957 3023.7 536.136C3002.74 547.315 2975.66 552.904 2942.48 552.904H2847.11V665.04C2847.11 671.677 2844.66 677.267 2839.77 681.808C2835.23 686.349 2829.64 688.62 2823.01 688.62ZM2937.76 507.84C2973.39 507.84 2998.37 501.028 3012.69 487.404C3027.37 473.78 3034.7 456.837 3034.7 436.576C3034.7 416.315 3027.37 399.372 3012.69 385.748C2998.37 372.124 2973.39 365.312 2937.76 365.312H2847.11V507.84H2937.76ZM3122.67 688.62C3116.03 688.62 3110.44 686.349 3105.9 681.808C3101.36 677.267 3099.09 671.677 3099.09 665.04V341.732C3099.09 335.095 3101.36 329.505 3105.9 324.964C3110.44 320.073 3116.03 317.628 3122.67 317.628C3129.31 317.628 3134.89 320.073 3139.44 324.964C3144.33 329.505 3146.77 335.095 3146.77 341.732V665.04C3146.77 671.677 3144.33 677.267 3139.44 681.808C3134.89 686.349 3129.31 688.62 3122.67 688.62Z" fill="#FF0000" fill-opacity="0.94"/>
<path d="M210.134 209.825L785.2 683.784H125.275L561.936 613.625L580.349 610.666L567.696 596.967L210.134 209.825Z" fill="#FF0000" fill-opacity="0.94" stroke="black" stroke-width="20"/>
</svg>
